# xmcd
#
# Track frame offsets: 
#        150
#        20346
#        35443
#        55103
#        81311
#        108119
#        126823
#        148443
#        173098
#
# Disc length: 2586 seconds
#
# Revision: 1
# Processed by: cddbd v1.5.2PL0 Copyright (c) Steve Scherf et al.
# Submitted via: ExactAudioCopy v1.3
#
DISCID=740a1809
DTITLE=Baby Boy Varhama - Work And Love, Love And Work
DYEAR=2013
DGENRE=blues
TTITLE0=Don't Be Caught On The Memory Vine
TTITLE1=Comin' Home Baby
TTITLE2=Work And Love, Love And Work
TTITLE3=Nothing Means Nothing
TTITLE4=I've Come The Hard Way
TTITLE5=Soul of A Man
TTITLE6=Black Night Blues
TTITLE7=Crying In The Streets
TTITLE8=Is This It?
EXTD=
EXTT0=
EXTT1=
EXTT2=
EXTT3=
EXTT4=
EXTT5=
EXTT6=
EXTT7=
EXTT8=
PLAYORDER=
